<svg width="1250" height="1250" viewBox="0 0 1250 1250" fill="none" xmlns="http://www.w3.org/2000/svg">
<rect width="1250" height="1250" fill="white"/>
<path fill-rule="evenodd" clip-rule="evenodd" d="M1235.7 1137.8H293.748L117.348 197.797H1059.35L1235.7 1137.8Z" fill="#D6DCFC" stroke="#2E263A" stroke-width="1.5" stroke-miterlimit="10"/>
<path fill-rule="evenodd" clip-rule="evenodd" d="M293.948 1137.8H206.698L30.3477 197.797H117.598L293.948 1137.8Z" fill="#977FF8" stroke="#2E263A" stroke-width="1.5" stroke-miterlimit="10"/>
<path fill-rule="evenodd" clip-rule="evenodd" d="M1059.35 197.795H30.3488L14.2988 112.195H1043.3L1059.35 197.795Z" fill="#2E263A" stroke="#2E263A" stroke-width="1.5" stroke-miterlimit="10"/>
<path d="M131.898 586.148H161.748L167.348 615.998H137.498L131.898 586.148Z" stroke="#2E263A" stroke-width="1.5" stroke-miterlimit="10"/>
<path d="M137.498 616.002L149.648 601.102L167.348 616.002" stroke="#2E263A" stroke-width="1.5" stroke-miterlimit="10"/>
<path d="M146.398 595.85C146.698 597.55 145.598 598.95 143.898 598.95C142.198 598.95 140.548 597.55 140.248 595.85C139.948 594.15 141.048 592.75 142.748 592.75C144.448 592.75 146.098 594.15 146.398 595.85Z" fill="#2E263A"/>
<path d="M122.297 595.853L130.197 602.503L127.697 589.203L122.297 595.853Z" fill="#2E263A"/>
<path d="M139.447 574.75L134.047 581.4H147.347L139.447 574.75Z" fill="#2E263A"/>
<path d="M115.799 653.094H202.799" stroke="#2E263A" stroke-width="1.5" stroke-miterlimit="10"/>
<path d="M137.25 767.641H224.3" stroke="#2E263A" stroke-width="1.5" stroke-miterlimit="10"/>
<path d="M80.0977 462.891H167.098" stroke="#2E263A" stroke-width="1.5" stroke-miterlimit="10"/>
<path d="M65 240.5H98.95" stroke="#2E263A" stroke-width="1.5" stroke-miterlimit="10"/>
<path d="M78.8008 223.547L85.1508 257.497" stroke="#2E263A" stroke-width="1.5" stroke-miterlimit="10"/>
<path d="M102.199 410.047H136.149" stroke="#2E263A" stroke-width="1.5" stroke-miterlimit="10"/>
<path d="M104.148 420.648H138.148" stroke="#2E263A" stroke-width="1.5" stroke-miterlimit="10"/>
<path d="M89.4492 399.5H123.399" stroke="#2E263A" stroke-width="1.5" stroke-miterlimit="10"/>
<path d="M96.3992 308.344H79.9492L86.6992 344.394H116.199L111.899 321.394L96.3992 308.344Z" stroke="#2E263A" stroke-width="1.5" stroke-miterlimit="10"/>
<path d="M107.5 323.344L95.3496 313.094L97.2496 323.344H107.5Z" fill="#2E263A"/>
<path d="M148.797 506.688L133.697 516.138L115.047 506.688" stroke="#2E263A" stroke-width="1.5" stroke-miterlimit="10"/>
<path d="M131.148 502.688L124.848 506.688L132.648 510.637L131.148 502.688Z" fill="#2E263A"/>
<path d="M122.896 522.836L121.396 514.836L129.446 518.936L122.896 522.836Z" fill="#2E263A"/>
<path d="M148.797 506.688L152.347 525.638L137.247 535.087L118.597 525.638L115.047 506.688L130.147 497.188L148.797 506.688Z" stroke="#2E263A" stroke-width="1.5" stroke-miterlimit="10"/>
<path d="M133.697 516.141L137.247 535.091" stroke="#2E263A" stroke-width="1.5" stroke-miterlimit="10"/>
<path d="M150.849 699.25C149.899 694.3 156.849 690.25 166.399 690.25C175.949 690.25 184.399 694.3 185.299 699.25" stroke="#2E263A" stroke-width="1.5" stroke-miterlimit="10"/>
<path d="M169.049 704.652C160.199 704.652 154.749 701.052 154.399 699.252C154.049 697.452 158.199 693.852 166.999 693.852C175.799 693.852 181.299 697.452 181.649 699.252C181.999 701.052 177.849 704.652 169.049 704.652Z" fill="#2E263A"/>
<path d="M185.298 699.25L189.448 721.5C190.398 726.45 183.448 730.5 173.898 730.5C164.348 730.5 155.898 726.45 154.998 721.5L150.848 699.25" stroke="#2E263A" stroke-width="1.5" stroke-miterlimit="10"/>
<path d="M186.95 708.102C187.9 713.052 180.95 717.102 171.4 717.102C161.85 717.102 153.4 713.052 152.5 708.102" stroke="#2E263A" stroke-width="1.5" stroke-miterlimit="10"/>
<path d="M261.847 1093.74C263.797 1104.09 256.947 1112.54 246.597 1112.54C236.247 1112.54 226.247 1104.14 224.297 1093.74C222.347 1083.39 229.197 1074.94 239.547 1074.94" stroke="#2E263A" stroke-width="1.5" stroke-miterlimit="10"/>
<path d="M254.348 1081.39L256.298 1091.74" stroke="#2E263A" stroke-width="1.5" stroke-miterlimit="10"/>
<path d="M260.498 1086.59H250.098" stroke="#2E263A" stroke-width="1.5" stroke-miterlimit="10"/>
<path d="M250.147 1078.69C250.447 1080.39 249.347 1081.79 247.647 1081.79C245.947 1081.79 244.297 1080.39 243.997 1078.69C243.697 1076.99 244.797 1075.59 246.497 1075.59C248.197 1075.59 249.847 1076.99 250.147 1078.69Z" fill="#2E263A"/>
<path d="M240.898 1099.79V1099.64C240.648 1098.29 240.598 1097.24 240.698 1096.44C240.798 1095.64 241.098 1094.99 241.498 1094.49C241.898 1093.99 242.398 1093.54 242.998 1093.14C243.348 1092.89 243.698 1092.59 243.948 1092.24C244.198 1091.89 244.398 1091.49 244.498 1091.04C244.598 1090.59 244.598 1090.09 244.498 1089.54C244.348 1088.84 244.098 1088.24 243.698 1087.74C243.298 1087.24 242.748 1086.84 242.198 1086.59C241.598 1086.29 240.998 1086.19 240.298 1086.19C239.598 1086.19 239.198 1086.29 238.698 1086.54C238.198 1086.79 237.848 1087.14 237.548 1087.69C237.298 1088.19 237.198 1088.89 237.298 1089.69H234.648C234.498 1088.49 234.648 1087.49 234.998 1086.59C235.398 1085.74 236.048 1085.09 236.898 1084.64C237.748 1084.19 238.748 1083.94 239.898 1083.94C241.048 1083.94 242.248 1084.19 243.298 1084.69C244.298 1085.19 245.148 1085.84 245.798 1086.74C246.448 1087.59 246.898 1088.59 247.098 1089.69C247.298 1090.79 247.248 1091.19 247.098 1091.79C246.998 1092.44 246.748 1092.99 246.398 1093.49C246.048 1093.99 245.598 1094.44 245.048 1094.79C244.498 1095.19 244.098 1095.59 243.798 1095.99C243.498 1096.44 243.348 1096.94 243.248 1097.49C243.198 1098.09 243.248 1098.79 243.398 1099.69V1099.84H240.898V1099.79ZM243.448 1106.04C242.948 1106.04 242.448 1105.84 241.998 1105.49C241.548 1105.14 241.298 1104.69 241.198 1104.14C241.098 1103.59 241.198 1103.19 241.498 1102.79C241.798 1102.44 242.198 1102.24 242.748 1102.24C243.298 1102.24 243.748 1102.44 244.198 1102.79C244.648 1103.14 244.898 1103.59 244.998 1104.14C245.098 1104.69 244.998 1104.79 244.898 1105.09C244.798 1105.39 244.598 1105.59 244.348 1105.79C244.098 1105.99 243.798 1106.04 243.448 1106.04Z" fill="#2E263A"/>
<path d="M1101.2 1137.8L924.797 197.805" stroke="#2E263A" stroke-width="1.5" stroke-miterlimit="10"/>
<path d="M966.697 1137.8L790.297 197.805" stroke="#2E263A" stroke-width="1.5" stroke-miterlimit="10"/>
<path d="M832.197 1137.8L655.797 197.805" stroke="#2E263A" stroke-width="1.5" stroke-miterlimit="10"/>
<path d="M697.647 1137.8L521.297 197.805" stroke="#2E263A" stroke-width="1.5" stroke-miterlimit="10"/>
<path d="M563.148 1137.8L386.748 197.805" stroke="#2E263A" stroke-width="1.5" stroke-miterlimit="10"/>
<path d="M428.648 1137.8L252.248 197.805" stroke="#2E263A" stroke-width="1.5" stroke-miterlimit="10"/>
<path d="M1084.55 332.102H142.797" stroke="#2E263A" stroke-width="1.5" stroke-miterlimit="10"/>
<path d="M1109.75 466.352H167.996" stroke="#2E263A" stroke-width="1.5" stroke-miterlimit="10"/>
<path d="M1134.95 600.656H193.197" stroke="#2E263A" stroke-width="1.5" stroke-miterlimit="10"/>
<path d="M1160.15 734.953H218.348" stroke="#2E263A" stroke-width="1.5" stroke-miterlimit="10"/>
<path d="M1185.3 869.203H243.547" stroke="#2E263A" stroke-width="1.5" stroke-miterlimit="10"/>
<path d="M1210.5 1003.5H268.746" stroke="#2E263A" stroke-width="1.5" stroke-miterlimit="10"/>
<path fill-rule="evenodd" clip-rule="evenodd" d="M663.2 861.655C632.5 861.655 602.75 855.655 574.7 843.805C547.65 832.355 523.3 815.955 502.45 795.105C481.6 774.255 465.2 749.905 453.75 722.855C441.9 694.805 435.9 665.055 435.9 634.355C435.9 603.655 441.9 573.905 453.75 545.855C465.2 518.805 481.6 494.455 502.45 473.605C523.3 452.755 547.65 436.355 574.7 424.905C602.75 413.055 632.5 407.055 663.2 407.055C693.9 407.055 723.65 413.055 751.7 424.905C778.75 436.355 803.1 452.755 823.95 473.605C844.8 494.455 861.2 518.805 872.65 545.855C884.5 573.905 890.5 603.655 890.5 634.355C890.5 665.055 884.5 694.805 872.65 722.855C861.2 749.905 844.8 774.255 823.95 795.105C803.1 815.955 778.75 832.355 751.7 843.805C723.65 855.655 693.9 861.655 663.2 861.655Z" fill="#D6DCFC"/>
<path d="M663.2 849.655C782.107 849.655 878.5 753.262 878.5 634.355C878.5 515.448 782.107 419.055 663.2 419.055C544.294 419.055 447.9 515.448 447.9 634.355C447.9 753.262 544.294 849.655 663.2 849.655Z" fill="#977FF8" stroke="#2E263A" stroke-width="1.5" stroke-miterlimit="10"/>
<path fill-rule="evenodd" clip-rule="evenodd" d="M663.202 842.153C635.152 842.153 607.952 836.653 582.302 825.803C557.552 815.353 535.352 800.353 516.252 781.253C497.152 762.153 482.202 739.953 471.702 715.203C460.852 689.603 455.352 662.353 455.352 634.303C455.352 606.253 460.852 579.053 471.702 553.403C482.152 528.653 497.152 506.453 516.252 487.353C535.352 468.253 557.552 453.303 582.302 442.803C607.902 431.953 635.152 426.453 663.202 426.453C691.252 426.453 718.452 431.953 744.102 442.803C768.852 453.253 791.052 468.253 810.152 487.353C829.252 506.453 844.202 528.653 854.702 553.403C865.552 579.003 871.052 606.253 871.052 634.303C871.052 662.353 865.552 689.553 854.702 715.203C844.252 739.953 829.252 762.153 810.152 781.253C791.052 800.353 768.852 815.303 744.102 825.803C718.502 836.653 691.252 842.153 663.202 842.153Z" fill="#EFA9FB" stroke="#2E263A" stroke-width="1.5" stroke-miterlimit="10"/>
<path fill-rule="evenodd" clip-rule="evenodd" d="M776.9 578.8L711.1 707.45H649.3L676.85 654.15H675.6C652.9 683.65 618.95 703.05 570.65 707.45V654.85C570.65 654.85 601.55 653 619.7 633.9H570.65V578.75H625.8V624.1H627.05L649.6 578.75H691.3V623.8H692.55L715.95 578.75H776.95L776.9 578.8Z" fill="#2E263A"/>
<path d="M561.15 517.609L566 530.309L578.7 535.159L566 540.059L561.15 552.759L556.3 540.059L543.6 535.159L556.3 530.309L561.15 517.609Z" fill="#2E263A"/>
<path d="M804.351 639.062L808.251 649.213L818.401 653.112L808.251 657.013L804.351 667.163L800.451 657.013L790.301 653.112L800.451 649.213L804.351 639.062Z" fill="#2E263A"/>
<path d="M617.95 746.211L621.1 754.311L629.2 757.411L621.1 760.561L617.95 768.661L614.85 760.561L606.75 757.411L614.85 754.311L617.95 746.211Z" fill="#2E263A"/>
<path d="M979.001 909.547L985.401 968.097L1044 974.497L985.401 980.897L979.001 1039.45L972.601 980.897L914.051 974.497L972.601 968.097L979.001 909.547Z" fill="#2E263A"/>
<path d="M314.95 313.102L319.5 354.752L361.1 359.302L319.5 363.852L314.95 405.452L310.4 363.852L268.75 359.302L310.4 354.752L314.95 313.102Z" fill="#2E263A"/>
<path d="M1169.9 86.8516L1138.35 90.3016L1134.95 121.852L1131.5 90.3016L1099.95 86.8516L1131.5 83.4016L1134.95 51.8516L1138.35 83.4016L1169.9 86.8516Z" fill="#2E263A"/>
<path d="M404.648 826.547C410.724 826.547 415.648 821.622 415.648 815.547C415.648 809.472 410.724 804.547 404.648 804.547C398.573 804.547 393.648 809.472 393.648 815.547C393.648 821.622 398.573 826.547 404.648 826.547Z" stroke="#2E263A" stroke-width="1.5" stroke-miterlimit="10"/>
<path d="M949.25 533.852C955.325 533.852 960.25 528.927 960.25 522.852C960.25 516.776 955.325 511.852 949.25 511.852C943.175 511.852 938.25 516.776 938.25 522.852C938.25 528.927 943.175 533.852 949.25 533.852Z" stroke="#2E263A" stroke-width="1.5" stroke-miterlimit="10"/>
<path d="M1084.55 804.55C1089.05 804.55 1092.7 800.901 1092.7 796.4C1092.7 791.899 1089.05 788.25 1084.55 788.25C1080.05 788.25 1076.4 791.899 1076.4 796.4C1076.4 800.901 1080.05 804.55 1084.55 804.55Z" stroke="#2E263A" stroke-width="1.5" stroke-miterlimit="10"/>
<path d="M609.449 291.706C613.95 291.706 617.599 288.057 617.599 283.556C617.599 279.055 613.95 275.406 609.449 275.406C604.948 275.406 601.299 279.055 601.299 283.556C601.299 288.057 604.948 291.706 609.449 291.706Z" stroke="#2E263A" stroke-width="1.5" stroke-miterlimit="10"/>
<path d="M722.599 966.847C727.1 966.847 730.749 963.198 730.749 958.697C730.749 954.196 727.1 950.547 722.599 950.547C718.098 950.547 714.449 954.196 714.449 958.697C714.449 963.198 718.098 966.847 722.599 966.847Z" stroke="#2E263A" stroke-width="1.5" stroke-miterlimit="10"/>
<path d="M629.199 1222C632.181 1222 634.599 1219.59 634.599 1216.6C634.599 1213.62 632.181 1211.2 629.199 1211.2C626.217 1211.2 623.799 1213.62 623.799 1216.6C623.799 1219.59 626.217 1222 629.199 1222Z" stroke="#2E263A" stroke-width="1.5" stroke-miterlimit="10"/>
<path d="M1185.3 349.8C1188.28 349.8 1190.7 347.382 1190.7 344.4C1190.7 341.418 1188.28 339 1185.3 339C1182.32 339 1179.9 341.418 1179.9 344.4C1179.9 347.382 1182.32 349.8 1185.3 349.8Z" stroke="#2E263A" stroke-width="1.5" stroke-miterlimit="10"/>
<path d="M89.4488 1008.9C92.4312 1008.9 94.8488 1006.48 94.8488 1003.5C94.8488 1000.52 92.4312 998.102 89.4488 998.102C86.4665 998.102 84.0488 1000.52 84.0488 1003.5C84.0488 1006.48 86.4665 1008.9 89.4488 1008.9Z" stroke="#2E263A" stroke-width="1.5" stroke-miterlimit="10"/>
<path d="M870.998 160.402C873.98 160.402 876.398 157.984 876.398 155.002C876.398 152.019 873.98 149.602 870.998 149.602C868.015 149.602 865.598 152.019 865.598 155.002C865.598 157.984 868.015 160.402 870.998 160.402Z" stroke="white" stroke-width="1.5" stroke-miterlimit="10"/>
<path d="M162.15 252.753C165.132 252.753 167.55 250.335 167.55 247.353C167.55 244.371 165.132 241.953 162.15 241.953C159.168 241.953 156.75 244.371 156.75 247.353C156.75 250.335 159.168 252.753 162.15 252.753Z" stroke="#2E263A" stroke-width="1.5" stroke-miterlimit="10"/>
<path d="M483.349 64.4016C486.332 64.4016 488.749 61.9839 488.749 59.0016C488.749 56.0192 486.332 53.6016 483.349 53.6016C480.367 53.6016 477.949 56.0192 477.949 59.0016C477.949 61.9839 480.367 64.4016 483.349 64.4016Z" stroke="#2E263A" stroke-width="1.5" stroke-miterlimit="10"/>
</svg>
